<svg width="122" height="123" viewBox="0 0 122 123" fill="none" xmlns="http://www.w3.org/2000/svg">
<path d="M10.1667 61.5C10.1667 33.4248 32.9248 10.6667 61 10.6667C89.0752 10.6667 111.833 33.4248 111.833 61.5C111.833 89.5752 89.0752 112.333 61 112.333C32.9248 112.333 10.1667 89.5752 10.1667 61.5Z" fill="#0E5BFF"/>
<path fill-rule="evenodd" clip-rule="evenodd" d="M61 97.5052C70.5492 97.5052 79.7073 93.7119 86.4596 86.9596C93.2119 80.2073 97.0052 71.0492 97.0052 61.5C97.0052 51.9508 93.2119 42.7927 86.4596 36.0404C79.7073 29.2881 70.5492 25.4947 61 25.4947C51.4508 25.4947 42.2927 29.2881 35.5404 36.0404C28.7882 42.7927 24.9948 51.9508 24.9948 61.5C24.9948 71.0492 28.7882 80.2073 35.5404 86.9596C42.2927 93.7119 51.4508 97.5052 61 97.5052ZM56.7656 50.9114C53.2581 50.9114 50.4114 53.7581 50.4114 57.2656V65.7344C50.4114 69.2419 53.2581 72.0886 56.7656 72.0886H65.2344C68.7419 72.0886 71.5886 69.2419 71.5886 65.7344V57.2656C71.5886 53.7581 68.7419 50.9114 65.2344 50.9114H56.7656Z" fill="white"/>
</svg>
